<svg viewBox="0 0 1920 1080">
  <defs>
    <style>
      .st0 {
        fill: none;
      }

      .st1 {
        fill: #ffe256;
      }

      .st2 {
        fill: #80d1ce;
      }

      .st3 {
        fill: #ffc3a8;
      }

      .st4 {
        clip-path: url(#clippath-1);
      }

      .st5 {
        fill: #fd7d47;
      }

      .st6 {
        fill: #131314;
        font-family: NHaasGroteskDSPro-55Rg, 'Neue Haas Grotesk Display Pro';
        font-size: 185px;
        letter-spacing: 0em;
      }
    </style>
    <clipPath id="clippath-1">
      <rect class="st0" x="177.1" y="105.7" width="1552.5" height="289.3"/>
    </clipPath>
  </defs>
  <rect class="st1" x="-6.7" y="17.4" width="1920" height="1045.9"/>
  <rect class="st2" x="175.8" y="105.7" width="1552.5" height="289.3"/>
  <path class="st5" d="M1522.8,648.5c0,139.7-240.3,253-536.8,253s-536.8-113.3-536.8-253,227.5-253,536.8-253,536.8,113.3,536.8,253Z"/>
  <circle class="st3" cx="986.1" cy="982.5" r="80.8"/>
  <g class="st4">
    <text class="st6" transform="translate(190.8 237.9)"><tspan x="0" y="0">THE BIGGEST RISK</tspan><tspan x="-37.9" y="158.8">A BRAND CAN TAKE</tspan></text>
  </g>
  <text class="st6" transform="translate(711.3 553.6)"><tspan x="0" y="0">IS NOT</tspan><tspan x="-242.6" y="158.8">TAKING ONE</tspan><tspan x="-7.1" y="317.5">AT ALL</tspan></text>
  <path class="st1" d="M1231.3,873.6s32.4-8.3,49.8-13.7l3.8,50.5-55.8-5.7,2.2-31.1Z"/>
  <path class="st1" d="M695.1,861.3s27.6,8.5,63.6,16.7l21.2,67.6-178.2-10.9,93.4-73.4Z"/>
  <path class="st1" d="M727.8,425s12.5-2.8,25.2-5.7l-3.3-11.4-39.6,1.8,17.7,15.3Z"/>
  <path class="st1" d="M1214.1,419.5c5,1.3,53.2,13.7,55.3,13.7l20.6-18.1-51.3-6.6-25.1,2.6c-.2.2.2,8.5.5,8.5Z"/>
</svg>